<?xml version="1.0" encoding="UTF-8"?>
<!DOCTYPE svg PUBLIC "-//W3C//DTD SVG 1.1//EN" "http://www.w3.org/Graphics/SVG/1.1/DTD/svg11.dtd">
<!-- Creator: CorelDRAW X7 -->
<svg xmlns="http://www.w3.org/2000/svg" xml:space="preserve" width="300px" height="300px" version="1.1" style="shape-rendering:geometricPrecision; text-rendering:geometricPrecision; image-rendering:optimizeQuality; fill-rule:evenodd; clip-rule:evenodd"
viewBox="0 0 300 300"
 xmlns:xlink="http://www.w3.org/1999/xlink">
 <defs>
  <style type="text/css">
   <![CDATA[
    .fil1 {fill:black}
    .fil0 {fill:black;fill-rule:nonzero}
   ]]>
  </style>
 </defs>
 <g id="Layer_x0020_1">
  <metadata id="CorelCorpID_0Corel-Layer"/>
  <g id="_1995494229376">
   <path class="fil0" d="M53 243l0 -4 -14 0 0 4 5 0 0 13 4 0 0 -13 5 0zm18 13l0 -17 -4 0 0 7 -8 0 0 -7 -4 0 0 17 4 0 0 -6 8 0 0 6 4 0zm16 -13l0 -4 -13 0 0 17 13 0 0 -3 -9 0 0 -4 8 0 0 -3 -8 0 0 -3 9 0zm9 -4l0 17 8 0c4,0 7,-2 7,-4 0,-3 -2,-4 -4,-5 2,0 3,-2 3,-3 0,-3 -2,-5 -6,-5l-8 0zm4 3l4 0c1,0 2,1 2,2 0,1 -1,2 -2,2l-4 0 0 -4zm0 7l4 0c2,0 3,1 3,2 0,1 -1,2 -3,2l-4 0 0 -4zm17 7l0 -17 -4 0 0 17 4 0zm15 -8l0 4c-1,1 -2,1 -3,1 -3,0 -5,-2 -5,-5 0,-3 2,-5 5,-5 2,0 3,0 5,1l2 -2c-2,-2 -5,-3 -7,-3 -5,0 -9,4 -9,9 0,5 4,8 9,8 2,0 5,0 7,-2l0 -6 -4 0zm18 0l0 4c-1,1 -2,1 -3,1 -3,0 -5,-2 -5,-5 0,-3 2,-5 5,-5 1,0 3,0 4,1l3 -2c-2,-2 -5,-3 -7,-3 -5,0 -9,4 -9,9 0,5 4,8 9,8 2,0 5,0 6,-2l0 -6 -3 0zm20 -5l0 -4 -13 0 0 17 13 0 0 -3 -9 0 0 -4 8 0 0 -3 -8 0 0 -3 9 0zm9 -4c-4,0 -7,2 -7,5 0,6 9,4 9,7 0,2 0,2 -2,2 -2,0 -4,-1 -6,-2l-2 3c2,1 5,2 8,2 4,0 7,-1 7,-5 0,-6 -9,-4 -9,-7 0,-1 0,-2 2,-2 1,0 3,1 5,2l1 -3c-1,-1 -4,-2 -6,-2zm22 4l0 -4 -14 0 0 4 5 0 0 13 3 0 0 -13 6 0zm19 5l0 4c-1,1 -3,1 -4,1 -3,0 -5,-2 -5,-5 0,-3 2,-5 5,-5 2,0 4,0 5,1l2 -2c-2,-2 -4,-3 -7,-3 -5,0 -9,4 -9,9 0,5 4,8 9,8 3,0 5,0 7,-2l0 -6 -3 0zm14 3l7 -12 -4 0 -4 8 -5 -8 -4 0 7 12 0 5 3 0 0 -5zm27 5l0 -17 -5 0 -4 11 -5 -11 -5 0 0 17 4 0 0 -11 4 10 3 0 4 -10 0 11 4 0z"/>
   <g>
    <path class="fil1" d="M158 133c3,0 6,3 8,5 2,3 10,9 12,12 3,3 4,4 9,3 3,0 5,-3 7,-5 2,-2 4,-4 6,-6 2,-2 4,-3 6,-6 8,-8 6,-1 6,17 2,0 12,1 14,0l0 -21 -28 0c-1,0 -5,4 -7,5 -1,2 -4,5 -6,6 -2,-1 -5,-4 -7,-6 -1,-2 -4,-5 -7,-5 -8,0 -19,-1 -27,0 -1,3 0,18 0,22l14 -1c0,-5 0,-17 0,-20z"/>
    <path class="fil1" d="M91 154c13,0 29,1 42,0 1,-3 0,-15 0,-18 -4,-1 -11,0 -14,0l0 12c-9,0 -17,0 -25,0 -5,0 -7,1 -8,-5 0,-4 0,-7 0,-11l-15 0c0,3 0,7 0,10 1,11 11,12 20,12z"/>
    <path class="fil1" d="M62 109l2 1c3,-5 3,-11 12,-25 5,-8 11,-14 18,-19 35,-29 87,-25 119,9 3,3 5,6 8,10 9,13 10,21 12,25l2 0c0,-7 -9,-22 -12,-26 -5,-9 -11,-14 -18,-20 -42,-34 -101,-24 -131,19 -3,4 -5,8 -7,13l-5 13z"/>
    <path class="fil1" d="M68 109l2 1c1,-2 1,-5 2,-7 2,-6 6,-11 9,-16 30,-44 100,-50 136,1 2,3 4,7 6,11 4,8 3,11 7,11 0,-6 -9,-21 -11,-24 -6,-8 -11,-13 -18,-19 -40,-33 -108,-21 -132,36 0,1 -2,5 -1,6z"/>
    <path class="fil1" d="M72 182c-1,-3 0,-3 -4,-3 0,3 11,17 13,20 30,33 80,40 118,15 7,-5 12,-10 17,-16 3,-3 13,-15 13,-19 -4,0 -3,0 -5,3 -3,6 -6,9 -10,14 -28,33 -78,40 -115,15 -10,-7 -20,-18 -27,-29z"/>
    <path class="fil1" d="M74 179c3,10 19,26 28,31 36,23 84,16 109,-14 3,-3 12,-14 12,-17l-2 0c-5,6 -5,8 -12,16 -26,29 -71,35 -105,13 -9,-5 -17,-13 -22,-21 -2,-3 -4,-6 -6,-8l-2 0z"/>
    <path class="fil1" d="M71 128l16 0c2,-4 4,-3 9,-3l37 0 0 -6c-7,0 -44,-1 -51,1 -4,1 -10,4 -11,8z"/>
    <path class="fil1" d="M144 128l26 0c-1,-1 -7,-8 -9,-9 -2,-1 -13,0 -17,0 0,3 -1,6 0,9z"/>
    <path class="fil1" d="M201 128l25 0c1,-3 0,-7 0,-9 -5,0 -8,0 -13,0 -6,0 -6,1 -10,6 -2,1 -2,1 -2,3z"/>
    <path class="fil1" d="M205 160c0,1 0,0 0,1 0,9 1,12 -1,14l5 1c-4,-2 -3,-2 -3,-6 0,-3 0,-6 0,-8 2,1 1,0 2,1 1,2 3,9 6,13 2,-4 4,-11 7,-15l0 13 -3 2 7 0c-3,-2 -2,-2 -2,-12 0,-5 0,-4 2,-6l-4 0c-3,4 -5,11 -7,13l-6 -13 -5 0 2 2z"/>
    <path class="fil1" d="M138 159c0,0 0,0 0,0l2 2c3,5 5,7 5,11 0,4 -1,3 -3,4l7 0 -1 -2c-3,-4 2,-11 4,-14l2 -1c0,-1 0,-1 1,-1 0,0 0,0 0,0l-5 0c0,0 0,0 0,0 0,0 0,1 0,1l1 2c-1,0 -1,1 -2,2l-2 3c0,0 0,0 0,1 -2,-2 -4,-5 -5,-7l1 -2c0,0 0,0 0,0 0,0 0,0 0,0l-6 0 1 1z"/>
    <path class="fil1" d="M80 175c-7,0 -9,-17 1,-17 5,1 6,5 6,4 0,0 0,1 0,1l0 -5c-3,1 -2,0 -7,0 -13,0 -12,25 7,17 0,-2 0,-4 0,-6 1,-2 1,-2 2,-3l-6 0c2,1 1,0 2,2l0 7 -5 0z"/>
    <path class="fil0" d="M75 113l2 0 0 -1c0,0 0,0 0,0 -1,0 -1,0 -1,0 0,-1 0,-1 0,-1l0 0 0 0 2 0 0 0 0 0c-1,0 -1,0 -1,1 0,0 0,0 0,0 0,0 0,0 0,0l0 3c0,0 0,0 0,0 0,0 0,0 0,0 0,0 0,0 1,0l0 0 0 0 -2 0 0 0 0 0c0,0 0,0 0,0 1,0 1,0 1,0l0 -2 -2 0 0 2c0,0 0,0 0,0 0,0 0,0 0,0 0,0 0,0 0,0l0 0 0 0 -1 0 0 0 0 0c0,0 0,0 0,0 0,0 0,0 0,0l0 -3c0,0 0,0 0,0 0,0 0,0 0,0 0,-1 0,-1 0,-1l0 0 0 0 1 0 0 0 0 0c0,0 0,0 0,1 0,0 0,0 0,0 0,0 0,0 0,0l0 1zm12 -1l0 1 0 0c1,0 1,0 1,0 0,0 0,0 0,0l0 0 0 1 0 0c0,0 0,0 0,0 0,-1 0,-1 0,-1 0,0 0,0 -1,0l0 0 0 2c0,0 0,0 0,0 0,0 0,0 0,0 0,0 0,0 0,0l1 0c0,0 0,0 0,0 0,0 0,0 0,0 0,0 1,0 1,-1l0 0 -1 1 -3 0 0 0 1 0c0,0 0,0 0,0 0,0 0,0 0,0 0,0 0,0 0,0l0 -3c0,0 0,0 0,0 0,-1 0,-1 0,-1l-1 0 0 0 3 0 1 1 -1 0c0,0 0,0 0,0 0,0 0,0 0,0 0,0 0,0 0,0l-1 0zm12 2l-1 0 -1 1c0,0 0,0 0,0 0,0 0,0 0,0 0,0 1,0 1,0l0 0 -1 0 0 0c0,0 0,0 0,0 0,0 0,0 0,-1l2 -3 0 0 1 4c0,0 0,0 0,0 0,0 1,0 1,0l0 0 -2 0 0 0c0,0 0,0 0,0 1,0 1,0 1,0 0,0 0,0 -1,0l0 -1zm0 0l-1 -2 0 2 1 0zm13 0l0 0 -1 1 -3 0 0 0 1 0c0,0 0,0 0,0 0,0 0,0 0,0l0 -3c0,0 0,0 0,0 0,-1 0,-1 0,-1l-1 0 0 0 2 0 0 0c0,0 0,0 0,1 0,0 0,0 0,0 0,0 0,0 0,0l0 3c0,0 0,0 0,0 0,0 0,0 0,0 0,0 0,0 0,0l0 0c1,0 1,0 1,0 0,0 0,0 0,0 1,0 1,-1 1,-1zm10 -3l0 1 0 0c0,0 0,0 0,0 0,0 0,0 0,0 0,0 0,0 0,0l-1 0 0 3c0,0 0,0 0,0 0,0 0,0 0,0l1 0 0 0 -2 0 0 0 0 0c0,0 0,0 0,0 0,0 0,0 0,0l0 -3 0 0c0,0 0,0 0,0 0,0 -1,0 -1,0 0,0 0,0 0,0l0 0 0 -1 3 0zm9 2l2 0 0 -1c0,0 0,0 0,0 0,0 0,0 0,0 0,-1 0,-1 0,-1l0 0 0 0 1 0 0 0 0 0c0,0 0,0 0,1 0,0 0,0 0,0 0,0 0,0 0,0l0 3c0,0 0,0 0,0 0,0 0,0 0,0 0,0 0,0 0,0l0 0 0 0 -1 0 0 0 0 0c0,0 0,0 0,0 0,0 0,0 0,0l0 -2 -2 0 0 2c0,0 0,0 0,0 0,0 0,0 1,0 0,0 0,0 0,0l0 0 0 0 -2 0 0 0 0 0c1,0 1,0 1,0 0,0 0,0 0,0l0 -3c0,0 0,0 0,0 0,0 0,0 0,0 0,-1 -1,-1 -1,-1l0 0 0 0 2 0 0 0 0 0c0,0 0,0 0,1 -1,0 -1,0 -1,0 0,0 0,0 0,0l0 1zm15 0l2 0 0 0c0,0 -1,0 -1,0 0,0 0,0 0,1 0,0 0,0 -1,0 1,1 1,1 1,1 0,0 0,0 0,0 0,0 0,0 1,0 0,0 0,0 0,-1l0 1c0,0 0,0 0,0 -1,0 -1,0 -1,0 0,0 0,0 -1,0 0,0 0,0 0,0 0,0 0,0 -1,0 0,0 0,0 0,0 -1,0 -1,0 -1,0 0,0 0,0 0,-1 0,0 0,0 0,0 0,0 0,-1 1,-1 0,0 0,0 0,0 0,-1 0,-1 0,-1 0,0 0,0 0,-1 0,0 0,0 1,0 0,0 0,0 0,0 0,1 0,1 0,1 0,0 0,0 0,0 0,1 0,1 -1,1 1,0 1,1 1,1 1,0 1,-1 1,-1 0,0 0,0 0,0 0,0 0,0 -1,0l0 0zm-1 0c1,0 1,0 1,-1 0,0 0,0 0,0 0,0 0,0 0,0 0,0 0,-1 0,-1 -1,0 -1,1 -1,1 0,0 0,0 0,0 0,0 0,0 0,0 0,0 0,1 0,1zm1 2c0,-1 -1,-1 -1,-1 0,0 0,-1 0,-1 0,0 0,1 -1,1 0,0 0,0 0,0 0,0 0,1 0,1 1,0 1,0 1,0 0,0 0,0 0,0 0,0 1,0 1,0zm12 -3l0 1 1 0c0,0 0,0 0,0 0,0 0,0 1,0l0 0 0 1 0 0c0,0 -1,0 -1,0 0,-1 0,-1 0,-1 0,0 0,0 0,0l-1 0 0 2c0,0 0,0 0,0 0,0 0,0 0,0 1,0 1,0 1,0l0 0 0 0 -2 0 0 0 0 0c0,0 1,0 1,0 0,0 0,0 0,0l0 -3c0,0 0,0 0,0 0,0 0,0 0,0 -1,-1 -1,-1 -1,-1l0 0 0 0 3 0 0 1 0 0c0,0 0,0 0,0 0,0 0,0 0,0 0,0 -1,0 -1,0l-1 0zm12 3l0 0 -2 0 0 0 0 0c0,0 0,0 1,0 0,0 0,0 0,0l0 -3c0,0 0,0 0,0 0,0 0,0 -1,0 0,-1 0,-1 0,-1l0 0 0 0 2 0 0 0 0 0c-1,0 -1,0 -1,1 0,0 0,0 0,0l0 3c0,0 0,0 0,0 0,0 0,0 0,0 0,0 1,0 1,0l0 0zm11 -4l0 1 0 0c0,0 0,0 0,0 0,0 0,0 -1,0 0,0 0,0 0,0l0 0 0 3c0,0 0,0 0,0 0,0 0,0 0,0l0 0 0 0 -2 0 0 0 1 0c0,0 0,0 0,0 0,0 0,0 0,0l0 -3 0 0c-1,0 -1,0 -1,0 0,0 0,0 0,0 0,0 0,0 0,0l0 0 0 -1 3 0zm8 0l1 0 2 3 0 -2c0,0 0,0 0,0 0,-1 0,-1 0,-1l-1 0 0 0 2 0 0 0 0 0c0,0 -1,0 -1,1 0,0 0,0 0,0l0 3 0 0 -2 -3 0 3c0,0 0,0 0,0 0,0 0,0 0,0l0 0 0 0 -1 0 0 0 0 0c0,0 0,0 0,0 0,0 0,0 0,0l0 -3c0,0 0,0 0,0 0,0 0,0 0,-1 0,0 0,0 0,0l0 0zm13 1l0 1 1 0c0,0 0,0 0,0 0,0 0,0 0,0l0 0 0 1 0 0c0,0 0,0 0,0 0,-1 0,-1 0,-1 0,0 0,0 0,0l-1 0 0 2c0,0 0,0 0,0 0,0 0,0 0,0 0,0 0,0 0,0l1 0c0,0 0,0 0,0 0,0 0,0 0,0 1,0 1,0 1,-1l0 0 0 1 -3 0 0 0 0 0c0,0 0,0 0,0 0,0 0,0 0,0 0,0 0,0 0,0l0 -3c0,0 0,0 0,0 0,-1 0,-1 0,-1l0 0 0 0 3 0 0 1 0 0c-1,0 -1,0 -1,0 0,0 0,0 0,0 0,0 0,0 0,0l-1 0zm12 -1l0 2 0 0c0,-1 0,-1 0,-1 0,0 0,0 0,0 -1,0 -1,-1 -1,-1 0,0 0,1 0,1 0,0 -1,0 -1,0 0,0 0,0 1,0 0,1 0,1 0,1 1,0 1,0 1,0 0,1 0,1 0,1 1,0 1,0 1,0 0,1 -1,1 -1,1 0,0 0,0 -1,0 0,0 0,0 0,0 0,0 0,0 0,0 -1,0 -1,0 -1,0 0,0 0,0 0,0 0,0 0,0 0,0l0 0 0 -1 0 0c0,0 0,0 0,1 0,0 1,0 1,0 0,0 0,0 0,0 1,0 1,0 1,0 0,0 0,0 0,-1 0,0 0,0 0,0 0,0 0,0 0,0 0,0 -1,0 -1,0 0,-1 0,-1 -1,-1 0,0 0,0 0,0 0,0 0,-1 0,-1 0,0 0,0 0,0 1,-1 1,-1 1,-1 0,0 1,0 1,0 0,0 0,0 0,0 0,0 0,0 0,0 0,0 0,0 0,0l0 0zm11 0l0 2 0 0c0,-1 0,-1 0,-1 0,0 0,0 0,0 -1,0 -1,-1 -1,-1 0,0 0,1 0,1 -1,0 -1,0 -1,0 0,0 0,0 0,0 1,1 1,1 1,1 1,0 1,0 1,0 0,1 0,1 0,1 0,0 0,0 0,0 0,1 0,1 0,1 0,0 0,0 -1,0 0,0 0,0 0,0 0,0 0,0 0,0 -1,0 -1,0 -1,0 0,0 0,0 0,0 0,0 0,0 0,0l0 0 0 -1 0 0c0,0 0,0 0,1 0,0 0,0 1,0 0,0 0,0 0,0 0,0 1,0 1,0 0,0 0,0 0,-1 0,0 0,0 0,0 0,0 0,0 0,0 0,0 -1,0 -1,0 0,-1 -1,-1 -1,-1 0,0 0,0 0,0 0,0 0,-1 0,-1 0,0 0,0 0,0 0,-1 1,-1 1,-1 0,0 0,0 1,0 0,0 0,0 0,0 0,0 0,0 0,0 0,0 0,0 0,0l0 0z"/>
    <g>
     <path class="fil0" d="M232 125l0 -5 2 0c0,0 1,0 1,1 0,0 0,0 0,0 0,0 0,0 0,1 0,0 0,0 0,0 0,1 0,1 -1,1 0,0 0,0 0,0 1,0 1,1 1,1l1 1 -1 0 -1 -1c0,0 0,0 0,-1 0,0 0,0 0,0 0,0 0,0 -1,0 0,0 0,0 0,0l-1 0 0 2 0 0zm0 -3l2 0c0,0 0,0 0,0 0,0 1,0 1,0 0,0 0,0 0,0 0,-1 0,-1 0,-1 -1,0 -1,0 -1,0l-2 0 0 1z"/>
     <path class="fil0" d="M234 119c1,0 2,0 3,1 0,1 1,2 1,3 0,1 -1,2 -1,3 -1,0 -2,1 -3,1 -1,0 -2,-1 -3,-1 -1,-1 -1,-2 -1,-3 0,-1 0,-2 1,-3 1,-1 2,-1 3,-1zm2 1c0,-1 -1,-1 -2,-1 -1,0 -2,0 -3,1 0,1 -1,2 -1,3 0,1 1,2 1,2 1,1 2,1 3,1 1,0 2,0 2,-1 1,0 1,-1 1,-2 0,-1 0,-2 -1,-3z"/>
    </g>
   </g>
  </g>
 </g>
</svg>
